<mxfile host="app.diagrams.net" modified="2023-09-28T13:05:30.508Z" agent="Mozilla/5.0 (Windows NT 10.0; Win64; x64) AppleWebKit/537.36 (KHTML, like Gecko) Chrome/117.0.0.0 Safari/537.36" version="22.0.0" etag="80bQQdQD1eb2iH_OdY2v" type="github">
  <diagram name="Страница — 1" id="Q_8rGjoLkvCWglpTOPSP">
    <mxGraphModel>
      <root>
        <mxCell id="0" />
        <mxCell id="1" parent="0" />
      </root>
    </mxGraphModel>
  </diagram>
</mxfile>
